<?xml version="1.0" standalone="no"?>
<!DOCTYPE svg PUBLIC "-//W3C//DTD SVG 20010904//EN"
 "http://www.w3.org/TR/2001/REC-SVG-20010904/DTD/svg10.dtd">
<svg version="1.0" xmlns="http://www.w3.org/2000/svg"
 width="750.000000pt" height="750.000000pt" viewBox="0 0 750.000000 750.000000"
 preserveAspectRatio="xMidYMid meet">
<metadata>
Created by potrace 1.16, written by Peter Selinger 2001-2019
</metadata>
<g transform="translate(0.000000,750.000000) scale(0.100000,-0.100000)"
fill="#000000" stroke="none">
<path d="M3832 7155 c-7 -8 -18 -15 -25 -15 -7 0 -6 4 3 10 9 6 10 10 3 10
-19 0 -74 -51 -66 -62 3 -6 2 -8 -4 -5 -5 3 -25 -14 -43 -38 -30 -40 -51 -61
-35 -35 3 5 -9 0 -28 -13 -19 -12 -33 -24 -32 -27 2 -3 -4 -6 -13 -7 -33 -2
-113 -28 -107 -35 4 -3 -7 -9 -25 -13 -37 -8 -112 3 -104 16 3 5 -3 9 -13 10
-34 1 -66 9 -79 20 -7 6 -19 7 -25 3 -8 -4 -9 -3 -5 4 4 7 3 12 -3 12 -6 0
-34 20 -64 44 -66 54 -89 66 -121 66 -30 0 -76 -19 -94 -40 -12 -13 -13 -13
-7 0 4 8 -7 0 -24 -18 -18 -18 -29 -38 -25 -44 4 -7 3 -8 -4 -4 -7 4 -12 2
-12 -3 0 -22 -2 -26 -17 -43 -8 -9 -12 -22 -7 -29 4 -7 3 -10 -4 -5 -6 3 -16
-2 -22 -13 -14 -27 -54 -67 -75 -74 -9 -4 -13 -12 -10 -17 4 -6 3 -9 -2 -8
-15 5 -73 -24 -67 -34 4 -6 -2 -7 -16 -3 -13 4 -20 3 -17 -2 9 -14 -242 -11
-251 3 -9 13 -95 58 -87 44 3 -6 0 -7 -9 -4 -9 3 -16 10 -16 15 0 15 -48 10
-54 -6 -3 -8 -11 -15 -18 -15 -9 0 -8 3 2 10 9 6 10 10 3 10 -7 0 -16 -6 -20
-14 -4 -8 -11 -15 -15 -16 -9 -1 -59 -50 -52 -50 3 0 -2 -7 -10 -16 -16 -15
-21 -51 -18 -109 2 -21 0 -26 -7 -16 -7 11 -12 4 -20 -27 -7 -23 -16 -44 -21
-47 -6 -4 -8 -11 -5 -16 4 -5 2 -9 -3 -9 -5 0 -26 -21 -46 -47 -20 -25 -36
-43 -36 -40 0 4 -26 -9 -57 -28 -31 -19 -60 -32 -65 -29 -4 3 -8 1 -8 -4 0 -5
-12 -8 -27 -5 -24 3 -25 2 -8 -6 15 -8 11 -9 -20 -6 -105 11 -159 13 -135 5
23 -7 24 -8 3 -9 -12 -1 -27 7 -33 17 -8 11 -13 13 -16 5 -4 -9 -13 -9 -30 -2
-14 5 -27 9 -30 9 -11 0 -97 -87 -104 -106 -5 -12 -10 -78 -11 -147 -2 -69 -6
-124 -10 -121 -8 4 -35 -65 -31 -78 1 -5 -3 -8 -9 -8 -5 0 -7 -5 -3 -12 4 -7
3 -8 -4 -4 -10 6 -36 -27 -37 -46 0 -5 -2 -7 -5 -6 -3 1 -26 -12 -52 -30 -26
-18 -51 -32 -57 -32 -6 0 -19 -9 -30 -21 -11 -12 -24 -18 -29 -15 -6 3 -40 0
-76 -8 -36 -7 -66 -10 -66 -5 0 5 -10 4 -22 0 -13 -5 -22 -14 -20 -20 1 -6 -3
-10 -9 -9 -14 4 -79 -78 -79 -98 0 -9 4 -13 8 -10 11 6 10 -37 -1 -45 -4 -3
-5 -13 -1 -23 5 -14 9 -15 16 -4 7 10 8 8 4 -5 -3 -10 3 -40 13 -67 11 -28 15
-50 10 -50 -5 0 -9 -20 -9 -45 0 -25 4 -45 9 -45 5 0 3 -13 -5 -28 -7 -16 -15
-43 -17 -61 -2 -18 -8 -36 -14 -39 -12 -9 -27 -44 -24 -57 2 -5 -1 -7 -5 -3
-8 9 -110 -83 -106 -95 1 -5 -2 -6 -8 -2 -5 3 -10 1 -10 -5 0 -6 -4 -9 -9 -5
-5 3 -12 1 -16 -5 -4 -6 -10 -8 -15 -5 -4 3 -16 2 -25 -1 -13 -6 -14 -9 -3
-16 10 -7 9 -8 -5 -4 -24 8 -58 -7 -95 -41 -25 -23 -32 -38 -37 -83 -7 -61 6
-117 24 -112 7 1 10 -2 7 -7 -4 -5 0 -13 8 -18 14 -8 16 -12 16 -34 0 -5 5 -7
10 -4 6 4 10 3 9 -2 -4 -17 15 -69 30 -81 9 -8 10 -11 3 -7 -6 3 -12 1 -12 -4
0 -6 3 -11 8 -11 4 0 6 -19 5 -42 -2 -33 -1 -38 6 -23 8 16 10 12 10 -20 0
-32 -2 -36 -10 -20 -7 15 -8 8 -6 -27 1 -25 -1 -44 -5 -41 -5 2 -8 -3 -8 -12
0 -10 5 -14 13 -10 6 4 4 0 -5 -8 -10 -8 -18 -21 -18 -30 0 -9 -5 -19 -11 -22
-6 -4 -8 -14 -5 -22 3 -8 2 -12 -3 -9 -8 5 -36 -42 -33 -56 1 -3 -6 -12 -16
-20 -16 -12 -16 -11 -2 7 14 20 14 20 -7 1 -13 -10 -20 -22 -18 -26 3 -4 -3
-7 -13 -6 -9 0 -16 -5 -14 -12 1 -8 -2 -11 -7 -8 -12 8 -70 -33 -95 -67 -30
-40 -29 -132 1 -170 12 -16 24 -28 28 -27 3 0 25 -19 50 -43 24 -25 47 -41 51
-38 3 3 5 1 3 -4 -4 -17 23 -65 34 -58 6 3 7 1 3 -5 -4 -6 0 -24 8 -40 8 -16
12 -33 8 -36 -4 -4 1 -12 11 -17 25 -15 25 -153 0 -168 -10 -5 -15 -13 -11
-17 4 -3 0 -20 -8 -36 -8 -16 -12 -34 -8 -40 4 -6 3 -8 -3 -5 -10 7 -38 -48
-34 -66 1 -5 -2 -6 -7 -3 -5 3 -20 -6 -32 -19 -13 -14 -19 -25 -14 -25 5 0 0
-7 -11 -16 -17 -12 -20 -26 -19 -79 0 -61 2 -66 37 -100 21 -21 42 -33 49 -29
6 4 8 3 5 -3 -4 -6 0 -13 7 -16 8 -3 17 -1 20 6 2 7 5 4 5 -5 1 -16 19 -23 44
-19 5 1 6 -3 2 -9 -3 -5 5 -15 19 -22 14 -6 26 -15 26 -20 0 -4 12 -16 28 -26
15 -9 27 -24 27 -32 0 -8 6 -14 13 -12 8 1 11 -2 7 -7 -3 -6 3 -19 14 -30 11
-11 15 -21 10 -23 -5 -2 -1 -19 9 -39 32 -62 17 -219 -29 -302 -5 -10 -7 -22
-4 -27 4 -6 -1 -13 -9 -16 -9 -3 -16 -10 -16 -16 0 -5 4 -6 10 -3 6 4 6 -3 0
-21 -12 -30 -4 -68 12 -58 7 5 8 2 3 -5 -4 -8 8 -27 36 -52 41 -37 78 -51 140
-53 15 -1 24 -5 21 -10 -3 -5 2 -7 11 -3 9 3 17 3 19 -1 2 -4 17 -15 35 -24
23 -12 33 -13 37 -5 3 8 5 8 5 -1 1 -17 79 -91 88 -83 3 3 3 1 0 -5 -3 -6 4
-26 17 -45 13 -19 26 -47 30 -64 4 -16 13 -33 19 -37 18 -11 18 -188 0 -195
-8 -3 -12 -12 -9 -19 3 -8 1 -14 -5 -14 -16 0 -1 -52 18 -67 9 -7 13 -13 8
-13 -12 0 74 -80 88 -82 10 -1 166 -6 249 -8 15 -1 27 -6 25 -12 -1 -7 7 -14
18 -16 11 -2 35 -15 53 -29 18 -14 41 -26 50 -27 9 -2 15 -5 12 -7 -4 -3 53
-92 70 -109 3 -3 5 -11 6 -17 3 -35 4 -38 13 -24 7 10 9 8 9 -10 0 -13 3 -60
7 -104 6 -69 11 -83 34 -105 15 -14 22 -23 16 -20 -6 3 1 -5 15 -18 14 -12 31
-20 37 -17 7 2 17 -4 23 -13 8 -15 11 -15 20 -2 5 8 10 10 10 5 0 -16 38 -15
44 1 3 8 11 14 18 14 9 0 8 -3 -2 -10 -28 -18 5 -9 52 14 27 13 48 19 48 15 0
-14 20 -10 37 7 16 16 65 12 71 -7 5 -12 32 -12 32 0 0 5 16 1 36 -9 20 -10
43 -16 51 -13 11 4 14 2 9 -5 -4 -7 3 -14 19 -18 14 -3 25 -11 25 -16 0 -6 8
-7 17 -4 10 4 14 4 10 0 -10 -11 13 -34 34 -34 12 0 19 -7 19 -20 0 -12 10
-24 23 -30 12 -5 16 -9 8 -9 -12 -1 -12 -4 1 -18 8 -10 21 -34 28 -53 42 -110
64 -140 116 -160 21 -9 44 -8 122 2 7 1 24 14 36 29 13 15 26 26 29 23 6 -6
58 25 69 41 5 6 8 4 8 -5 0 -9 3 -11 8 -5 4 6 13 10 20 11 6 1 27 2 45 4 l32
2 -30 7 c-19 5 2 7 58 8 69 1 90 -2 94 -14 3 -8 12 -12 19 -9 8 3 14 0 14 -6
0 -6 3 -9 6 -5 4 3 19 0 34 -8 15 -8 31 -11 35 -7 5 4 5 2 1 -5 -3 -6 -2 -14
4 -18 5 -3 10 0 10 7 0 7 7 2 16 -10 8 -12 20 -20 25 -16 5 3 8 2 7 -3 -4 -13
44 -73 59 -73 8 0 11 -5 8 -11 -8 -12 79 -99 98 -99 8 0 7 4 -3 10 -10 7 -11
10 -2 10 7 0 15 -7 18 -15 6 -16 31 -19 58 -9 9 3 13 10 10 15 -3 5 5 8 17 6
15 -1 27 6 35 21 8 17 13 20 17 10 4 -10 6 -10 7 2 1 8 26 35 55 60 29 25 54
52 54 60 1 13 2 13 11 0 9 -14 14 -7 11 13 -1 5 3 6 9 2 5 -3 20 0 32 7 25 14
28 15 73 18 29 2 29 2 6 9 -14 4 18 7 70 7 52 0 81 -3 64 -6 l-30 -6 38 -5
c20 -3 37 -1 37 4 0 5 7 1 16 -7 14 -15 36 -21 59 -16 5 1 7 -1 3 -5 -9 -9
103 -92 150 -112 41 -17 87 -9 122 21 22 19 23 19 10 1 -8 -11 2 -4 23 15 39
37 45 45 25 35 -7 -4 -5 0 6 9 10 8 15 19 12 24 -3 6 1 13 10 16 9 3 14 12 11
20 -3 7 2 20 11 28 34 30 81 86 76 91 -3 3 3 4 13 3 10 0 17 5 16 11 -2 7 0
12 5 11 11 -3 102 34 102 42 0 4 50 7 110 7 61 0 110 -3 110 -8 0 -4 14 -12
30 -18 17 -5 30 -7 30 -4 0 3 9 -2 19 -11 11 -10 25 -15 32 -10 7 4 10 3 6 -3
-4 -6 0 -14 9 -17 28 -11 62 -6 68 9 3 8 11 15 18 15 9 0 8 -3 -2 -10 -8 -5
-10 -10 -4 -10 15 0 97 60 90 67 -3 3 2 12 10 21 9 8 13 23 11 33 -3 11 -1 22
5 25 5 4 7 21 4 38 -4 19 -3 26 3 18 6 -10 12 0 20 32 6 24 16 48 22 52 8 4 7
9 -2 15 -11 7 -11 9 -1 9 7 0 27 17 45 37 18 20 49 49 69 63 21 15 34 31 30
36 -4 5 -3 6 1 2 10 -8 69 11 78 25 4 5 52 10 108 11 55 0 93 -2 83 -7 -12 -5
-8 -6 11 -4 15 3 27 0 27 -4 0 -16 58 -10 64 6 3 8 11 15 18 15 9 0 8 -3 -2
-10 -8 -5 -10 -10 -5 -10 18 0 55 31 55 46 0 8 4 13 10 9 11 -7 43 52 35 65
-3 6 -1 10 4 10 6 0 11 7 11 15 0 8 -3 15 -7 15 -5 0 -8 34 -8 75 0 41 4 75 9
75 4 0 5 12 2 28 -5 20 -4 23 4 12 9 -13 10 -13 11 0 2 33 8 50 33 86 14 20
23 41 20 46 -3 5 -1 7 5 6 5 -2 28 17 50 40 23 24 41 40 41 37 0 -4 6 -3 13 2
6 6 29 16 50 22 20 7 37 16 37 19 0 4 10 7 23 8 75 3 123 8 132 13 6 3 16 6
23 7 22 4 71 56 89 94 23 51 24 62 5 83 -9 11 -16 22 -15 26 5 11 -8 41 -15
37 -4 -2 -8 18 -9 46 -1 28 -8 56 -14 64 -8 10 -9 17 0 28 6 7 12 38 14 69 1
30 5 51 8 45 3 -5 9 -2 13 7 3 9 4 21 0 26 -3 5 0 9 5 9 6 0 11 6 11 14 0 7 7
19 15 26 9 7 14 19 11 27 -3 7 0 13 8 13 15 0 56 42 56 57 0 6 8 10 18 9 9 0
16 5 15 11 -2 7 0 12 5 11 12 -3 57 14 64 26 4 5 23 11 42 12 19 0 46 8 60 18
27 17 60 81 50 97 -3 5 0 9 7 9 16 0 5 81 -13 95 -7 5 -14 15 -15 22 -3 16
-50 83 -55 78 -2 -2 -4 4 -5 13 -3 31 -16 77 -23 82 -4 3 -10 16 -14 30 -6 19
-5 21 3 10 8 -11 11 -3 11 35 0 38 -3 46 -11 35 -8 -11 -9 -9 -3 10 4 14 11
27 15 28 5 2 9 13 9 25 0 12 9 39 20 60 11 20 17 37 13 37 -5 0 -2 4 5 9 7 4
15 17 16 27 2 10 7 19 12 19 13 1 69 56 67 66 -2 5 0 8 5 8 4 -1 13 -1 19 0
16 1 91 71 78 71 -6 0 -3 5 5 10 18 11 23 105 8 135 -16 30 -131 134 -142 128
-5 -4 -6 -1 -3 4 4 6 -4 30 -17 53 -13 23 -25 37 -28 30 -2 -7 -4 7 -5 30 -1
23 -9 53 -18 66 -17 27 -19 38 -5 29 6 -4 10 8 10 29 0 20 -5 36 -11 36 -7 0
-5 10 5 25 9 14 17 42 19 63 1 21 8 44 15 52 110 133 120 148 116 197 -3 44
-2 45 5 13 8 -35 8 -35 9 -5 1 17 -7 48 -17 71 -19 43 -74 90 -91 79 -5 -3
-10 -3 -10 2 0 12 -51 33 -63 26 -6 -3 -7 -1 -4 4 4 6 -4 18 -18 27 -14 9 -25
14 -25 10 0 -4 -7 -1 -15 6 -8 7 -13 15 -10 19 2 4 -10 23 -27 42 -18 19 -33
45 -34 58 -2 13 -7 27 -11 30 -4 3 -8 11 -8 16 -1 6 -4 30 -8 55 -11 77 -16
176 -8 155 7 -17 8 -17 13 8 3 16 1 27 -6 27 -8 0 -8 2 0 8 18 12 35 52 28 64
-4 6 -3 8 4 4 15 -9 24 9 30 57 3 26 0 42 -9 48 -10 6 -10 9 -2 9 7 0 10 7 7
15 -4 8 -10 13 -14 10 -5 -3 -12 0 -16 6 -4 8 -3 9 4 5 23 -14 12 10 -16 37
-16 15 -31 24 -35 20 -4 -3 -7 -1 -7 6 0 7 -8 11 -17 9 -10 -1 -24 1 -30 5 -7
4 -33 9 -59 11 -25 1 -49 7 -52 13 -7 11 -52 28 -65 25 -4 -1 -6 1 -5 5 1 5
-23 34 -54 66 -70 73 -87 94 -82 100 2 2 -2 17 -10 32 -8 16 -13 33 -9 37 3 5
-3 16 -13 24 -11 9 -13 13 -6 9 9 -5 12 11 13 62 2 86 6 130 13 148 3 8 1 17
-5 20 -5 4 -7 11 -4 16 4 5 1 9 -5 9 -6 0 -8 5 -5 10 3 6 1 10 -4 10 -6 0 -10
5 -9 11 2 6 -13 24 -34 41 -38 31 -37 31 -190 28 -57 -1 -88 4 -88 14 0 4 -9
6 -20 3 -13 -3 -18 -1 -13 6 4 6 0 8 -10 4 -10 -3 -17 -2 -17 3 0 8 -40 26
-48 21 -1 -1 -24 21 -51 48 -27 28 -52 47 -56 43 -4 -4 -6 -2 -5 3 5 21 0 36
-10 30 -6 -4 -10 -3 -9 2 4 15 -13 63 -22 63 -5 0 -6 7 -2 15 3 10 0 15 -8 13
-8 -2 -15 7 -16 22 -2 22 -2 23 6 5 15 -31 12 -3 -4 51 -8 26 -12 58 -9 70 4
15 -2 29 -18 44 -13 13 -16 20 -8 16 8 -4 -2 9 -23 29 -22 21 -45 34 -53 31
-8 -3 -14 -2 -14 3 0 4 -16 8 -35 8 -19 0 -35 -5 -35 -10 0 -6 -3 -8 -6 -4 -8
7 -86 -23 -96 -37 -5 -7 -8 -7 -8 2 0 6 -9 12 -20 12 -11 0 -20 -4 -20 -10 0
-5 -16 -10 -35 -10 -19 0 -35 5 -35 10 0 6 -9 10 -20 10 -11 0 -20 -6 -20 -12
0 -9 -3 -10 -8 -2 -7 11 -86 41 -88 33 0 -2 -8 3 -17 11 -44 41 -66 53 -51 28
4 -7 3 -8 -4 -4 -7 4 -12 12 -12 18 0 15 -62 84 -73 80 -5 -1 -6 2 -2 8 3 5 1
10 -6 10 -7 0 -10 3 -7 6 10 10 -23 94 -34 88 -6 -4 -8 1 -4 14 8 23 -39 86
-56 75 -6 -3 -8 -1 -4 5 3 6 2 13 -4 17 -5 3 -10 1 -10 -5 0 -7 -6 -6 -14 3
-10 10 -31 14 -63 12 -26 -2 -49 -4 -50 -5 -2 -2 -8 -3 -13 -4 -6 0 -29 -19
-52 -40 -22 -22 -38 -34 -34 -28 12 19 -8 14 -32 -8 -12 -12 -22 -17 -22 -11
0 13 -38 1 -44 -14 -7 -20 -175 -19 -183 1 -3 8 -12 13 -19 10 -8 -3 -14 -2
-14 3 0 4 -6 8 -13 8 -18 0 -96 52 -132 88 -16 17 -33 29 -37 28 -4 -2 -7 0
-6 5 4 14 -33 73 -42 67 -6 -4 -10 -1 -10 4 0 15 -37 51 -52 51 -9 0 -8 -4 2
-11 11 -8 9 -9 -10 -3 -14 4 -26 11 -28 15 -5 13 -25 10 -40 -6z m273 -714
c511 -93 926 -290 1312 -623 254 -220 457 -484 619 -803 287 -571 357 -1219
199 -1846 -149 -589 -521 -1133 -1020 -1491 -346 -248 -728 -402 -1165 -469
-205 -32 -554 -32 -750 -1 -414 65 -751 193 -1079 409 -566 372 -974 953
-1125 1603 -53 229 -61 306 -61 605 0 293 8 373 57 590 199 885 848 1610 1712
1914 155 55 434 117 601 135 22 2 162 3 310 1 225 -2 290 -6 390 -24z"/>
<path d="M3400 6450 c-1075 -111 -1987 -885 -2270 -1930 -71 -261 -95 -477
-87 -775 15 -566 196 -1071 546 -1530 87 -114 311 -343 421 -432 520 -417
1161 -623 1818 -583 672 41 1266 315 1737 801 585 603 844 1439 704 2267 -137
810 -650 1516 -1381 1897 -259 135 -525 221 -835 271 -115 18 -524 27 -653 14z
m418 -130 c37 -23 62 -72 62 -125 l0 -35 -55 0 c-55 0 -55 0 -55 31 0 43 -17
69 -45 69 -56 0 -70 -42 -70 -210 0 -145 12 -180 65 -180 34 0 42 11 50 65 l5
40 52 0 c29 -1 55 -3 58 -6 13 -13 -19 -113 -45 -142 -26 -30 -33 -32 -107
-35 -92 -4 -136 14 -168 69 -18 30 -20 52 -20 199 0 185 8 213 75 257 45 31
150 32 198 3z m-593 -71 l7 -35 -79 -19 c-43 -10 -82 -22 -87 -26 -13 -11 22
-119 40 -119 8 0 44 7 80 16 36 9 66 15 68 13 2 -2 6 -20 10 -40 l6 -36 -60
-16 c-33 -9 -66 -17 -74 -17 -8 0 -17 -3 -19 -7 -8 -12 28 -148 39 -148 5 0
44 8 87 19 45 11 82 15 87 10 4 -5 11 -23 14 -40 l7 -31 -138 -33 c-76 -18
-142 -33 -147 -34 -7 -1 -135 477 -136 509 0 12 271 84 282 75 3 -3 9 -21 13
-41z m1132 -6 l135 -37 -6 -34 c-3 -19 -8 -37 -11 -40 -5 -5 -123 21 -162 35
-11 4 -43 -81 -43 -113 0 -6 33 -21 73 -32 l72 -19 -2 -38 c-2 -21 -5 -40 -7
-42 -2 -3 -39 5 -81 17 -42 12 -78 20 -80 18 -1 -2 -12 -35 -23 -74 l-20 -71
87 -25 c85 -23 86 -24 83 -53 -6 -54 -8 -54 -156 -14 -76 21 -140 40 -142 41
-1 2 28 118 67 258 38 140 69 255 69 257 0 6 13 3 147 -34z m-1647 -402 c33
-135 60 -250 60 -255 0 -6 -25 -24 -56 -40 l-55 -29 -34 34 c-80 81 -335 363
-335 370 0 6 83 59 93 59 2 0 60 -65 128 -145 68 -79 125 -141 127 -137 1 4
-20 88 -48 187 -27 98 -48 180 -47 181 1 1 22 14 47 28 41 23 46 24 52 8 4 -9
35 -127 68 -261z m2197 178 c48 -29 98 -61 110 -72 70 -63 4 -229 -92 -231
-39 -1 -40 -3 -20 -30 8 -11 15 -31 15 -44 0 -19 -50 -133 -87 -201 -5 -8 -93
51 -93 63 0 7 16 43 35 79 42 79 44 108 9 136 -15 12 -30 21 -35 21 -5 0 -28
-35 -53 -77 -25 -43 -49 -85 -54 -93 -8 -12 -16 -11 -55 10 -26 14 -47 28 -47
33 0 4 50 94 111 200 144 248 149 257 159 257 4 0 48 -23 97 -51z m511 -398
c-28 -35 -343 -376 -351 -380 -10 -4 -77 58 -77 71 0 5 80 96 177 202 l178
194 42 -36 c37 -30 41 -37 31 -51z m-3307 46 c19 -12 45 -42 58 -66 20 -37 22
-48 13 -77 -5 -19 -9 -34 -7 -34 2 0 15 4 30 10 37 14 71 -4 150 -78 l67 -64
-33 -34 c-18 -19 -40 -34 -48 -34 -8 0 -42 27 -77 60 -34 33 -71 60 -83 60
-11 0 -33 -11 -48 -24 l-28 -24 73 -75 c39 -41 72 -79 72 -83 0 -4 -16 -25
-36 -45 l-37 -38 -147 152 c-80 84 -164 172 -185 196 l-39 43 91 89 c87 85 94
89 136 89 29 0 55 -8 78 -23z m1704 -17 c81 -25 219 -95 276 -141 22 -17 38
-33 36 -35 -2 -2 -19 1 -38 6 -211 62 -601 55 -840 -15 -46 -14 -88 -25 -94
-25 -18 0 81 92 145 135 77 51 124 72 205 91 81 19 220 11 310 -16z m-185
-581 c11 -178 22 -328 24 -334 5 -17 15 112 26 340 6 121 13 244 16 274 l6 54
31 -49 c86 -138 152 -321 165 -461 l8 -78 7 70 c11 104 -6 223 -55 394 -16 57
-27 105 -24 108 7 7 158 -60 223 -99 30 -18 108 -81 173 -140 65 -60 121 -108
124 -108 3 0 -52 68 -124 150 -71 83 -130 153 -130 155 0 8 69 -23 150 -67 99
-54 207 -130 310 -219 56 -48 77 -62 62 -41 -43 60 -170 188 -255 256 -48 38
-84 72 -82 76 6 10 118 -31 212 -79 112 -56 214 -132 309 -227 92 -93 369
-453 357 -465 -10 -9 -419 -139 -439 -139 -20 0 -177 90 -244 140 -30 22 -97
82 -147 132 l-93 91 -99 203 c-97 199 -140 262 -100 147 88 -252 55 -511 -98
-765 -56 -93 -158 -234 -184 -254 -15 -12 -136 -54 -155 -54 -7 0 -44 39 -82
88 -205 258 -288 443 -299 664 -6 127 3 194 42 309 13 38 20 69 15 69 -4 0
-25 -26 -47 -57 -36 -51 -72 -132 -127 -285 -25 -69 -75 -128 -186 -221 -173
-145 -344 -231 -570 -289 -122 -31 -388 -64 -402 -50 -9 9 367 520 484 658
146 172 358 317 538 368 l55 16 -37 -31 c-81 -66 -32 -68 131 -5 47 19 88 32
90 30 2 -1 -41 -54 -96 -116 -154 -176 -193 -224 -188 -230 3 -3 60 50 128
117 78 78 150 138 199 169 78 48 216 111 224 103 3 -3 -2 -33 -11 -67 -30
-114 16 -101 90 26 22 37 42 61 47 56 5 -5 18 -154 28 -333z m2133 173 c21
-31 39 -61 39 -65 0 -5 -80 -103 -177 -218 l-177 -210 -27 38 c-15 21 -30 44
-34 50 -5 8 8 30 33 57 l42 45 -43 61 c-23 33 -45 60 -49 60 -4 0 -27 -7 -50
-15 -23 -8 -48 -15 -55 -15 -12 0 -70 78 -63 86 4 3 508 182 518 183 3 0 22
-25 43 -57z m-4129 -16 l30 -23 -34 -54 c-18 -30 -39 -64 -47 -75 -13 -21 -11
-24 40 -53 30 -17 57 -31 60 -31 3 0 22 29 43 65 21 36 43 65 49 65 8 0 40
-18 64 -36 2 -2 -16 -33 -39 -70 l-43 -68 27 -20 c14 -12 43 -31 65 -43 l40
-23 46 75 c26 41 52 75 59 75 6 0 23 -8 38 -18 l27 -18 -74 -119 c-41 -66 -76
-124 -78 -129 -2 -7 -190 102 -429 251 l-38 23 76 125 c42 69 79 125 83 125 3
0 19 -11 35 -24z m4326 -588 l0 -53 -83 -25 c-79 -25 -82 -27 -85 -58 -4 -38
3 -40 83 -12 32 11 60 20 62 20 1 0 3 -22 3 -49 l0 -49 -72 -24 c-72 -24 -73
-25 -76 -61 -2 -21 1 -37 7 -37 6 0 44 11 86 24 l76 24 -3 -51 -3 -51 -115
-37 c-63 -20 -125 -39 -137 -43 l-23 -7 0 188 c0 103 3 205 6 225 l6 37 132
45 c72 24 132 45 134 45 1 1 2 -23 2 -51z m-4512 13 c12 -7 12 -16 0 -57 l-13
-48 -46 2 c-53 4 -75 -14 -65 -53 9 -35 43 -54 168 -92 121 -37 169 -41 193
-17 28 29 15 67 -31 89 l-41 20 14 50 c8 28 16 52 18 53 9 10 94 -39 118 -67
35 -43 36 -105 2 -178 -35 -77 -70 -96 -165 -89 -118 8 -265 60 -323 114 -61
57 -52 179 18 249 29 29 39 33 87 33 29 0 59 -4 66 -9z m1706 -64 c43 -74 57
-128 69 -272 l12 -140 19 63 c12 39 24 62 32 60 17 -4 151 -175 162 -208 20
-56 17 -58 -346 -174 -378 -121 -351 -118 -397 -40 -40 67 -61 140 -91 299
-23 130 -25 148 -11 168 15 23 174 101 181 89 2 -4 7 -61 11 -126 5 -70 11
-113 16 -104 4 8 15 58 24 112 8 54 26 118 39 144 24 46 105 132 126 132 6 0
10 -66 11 -182 1 -101 3 -172 6 -158 20 126 89 380 104 380 5 0 19 -19 33 -43z
m1069 -44 c34 -114 57 -206 57 -230 0 -15 -20 -25 -96 -50 -72 -24 -96 -29
-100 -19 -8 22 14 209 31 256 19 53 63 130 74 130 4 0 20 -39 34 -87z m134 12
c50 -44 94 -116 107 -176 5 -24 1 -27 -65 -48 -39 -12 -72 -21 -74 -19 -3 2
-9 42 -14 88 -5 47 -13 111 -17 143 -4 32 -3 57 2 57 5 0 33 -20 61 -45z
m1273 -24 l0 -50 -55 -17 -55 -18 -2 -174 -3 -175 -52 -18 -53 -18 0 175 c0
96 -2 174 -4 174 -2 0 -23 -7 -46 -15 -23 -8 -47 -15 -52 -15 -5 0 -8 21 -6
48 l3 47 155 52 c85 28 158 52 163 52 4 1 7 -21 7 -48z m-380 -295 l0 -224
-50 -17 c-28 -9 -56 -15 -63 -12 -7 2 -36 48 -66 101 -30 52 -57 93 -60 90 -7
-7 -8 -11 -9 -136 l-2 -106 -47 -16 c-26 -9 -48 -16 -50 -16 -6 0 -3 283 3
367 l7 81 41 16 c23 9 48 16 56 16 8 0 39 -43 69 -95 30 -52 58 -95 63 -95 4
0 8 53 8 118 l0 118 43 16 c23 8 45 16 50 17 4 0 7 -100 7 -223z m-420 35 l0
-48 -80 -24 c-79 -23 -80 -23 -80 -56 0 -18 3 -33 8 -33 4 0 36 9 72 20 36 11
66 20 68 20 1 0 2 -22 2 -50 l0 -49 -75 -22 -75 -22 0 -39 c0 -21 3 -38 8 -38
4 0 36 9 70 20 35 11 68 20 73 20 6 0 9 -21 7 -47 l-3 -48 -55 -18 c-30 -10
-90 -28 -132 -41 l-78 -24 0 223 0 224 123 40 c67 22 128 40 135 40 8 1 12
-15 12 -48z m-2331 -16 c23 -65 18 -209 -8 -278 -50 -128 -169 -246 -326 -322
-90 -44 -189 -74 -202 -62 -7 8 42 473 59 551 12 57 37 86 76 86 15 1 61 7
102 14 41 8 76 13 77 12 1 -1 -16 -62 -38 -135 -21 -74 -37 -136 -36 -138 2
-1 39 57 82 130 96 160 122 189 167 185 28 -3 35 -9 47 -43z m1963 -262 c-2
-120 -4 -223 -7 -229 -3 -12 -92 -40 -100 -32 -3 2 -2 103 2 224 l6 220 46 16
c25 9 48 16 51 17 3 1 4 -97 2 -216z m-242 79 c34 -35 45 -92 37 -201 -10
-145 -50 -190 -214 -245 l-103 -35 0 168 c0 93 3 195 6 228 l6 60 47 13 c25 8
64 19 86 26 69 21 103 17 135 -14z m-2761 -46 c15 -8 35 -30 46 -49 17 -32 17
-48 8 -243 -6 -128 -14 -218 -22 -232 -19 -35 -70 -62 -118 -62 -53 0 -109 45
-118 93 -3 18 -2 121 4 229 10 212 16 234 70 263 34 18 95 19 130 1z m262 -25
c48 -48 38 -116 -22 -147 -37 -19 -79 -11 -106 19 -82 90 42 214 128 128z
m2129 -214 l0 -223 -53 -17 c-30 -9 -56 -17 -59 -17 -5 0 -76 118 -109 180
l-13 25 -7 -40 c-5 -22 -8 -79 -8 -127 l-1 -87 -47 -13 -48 -14 -3 66 c-2 36
-1 137 3 226 l7 160 41 12 c23 6 49 13 57 16 11 4 30 -21 70 -94 30 -55 58
-100 63 -100 4 0 7 54 7 119 l0 119 43 15 c23 9 45 16 50 16 4 1 7 -99 7 -222z
m1474 116 c8 -45 28 -314 24 -319 -9 -9 -145 39 -218 77 -75 39 -190 123 -190
139 0 6 338 124 372 129 3 1 9 -11 12 -26z m573 -12 c74 -34 77 -51 64 -290
-7 -113 -18 -217 -24 -231 -16 -33 -74 -70 -109 -70 -44 0 -91 26 -112 61 -17
29 -18 47 -12 218 4 102 11 203 16 224 10 47 43 84 84 96 44 13 46 13 93 -8z
m274 -30 c86 -87 -37 -211 -128 -128 -30 27 -38 69 -19 106 31 60 99 70 147
22z m-2744 -75 c-3 -6 -39 -23 -81 -36 -75 -23 -76 -24 -76 -57 0 -18 4 -33 8
-33 5 0 35 9 67 20 32 11 62 20 67 20 4 0 8 -22 8 -48 l0 -48 -75 -24 -75 -24
0 -38 c0 -37 1 -38 28 -32 15 4 51 15 80 25 l53 18 -3 -51 -3 -52 -132 -42
-133 -42 0 223 0 223 53 18 c28 10 88 30 132 44 l80 26 3 -39 c2 -22 1 -45 -1
-51z m1473 -75 c52 -43 136 -96 239 -152 73 -40 74 -41 30 -234 -23 -99 -42
-213 -45 -272 -4 -57 -9 -103 -12 -103 -2 0 -68 43 -146 97 -313 213 -366 272
-426 471 -18 59 -20 79 -11 98 19 42 36 27 75 -63 21 -49 40 -90 42 -92 1 -2
2 54 1 124 l-2 128 35 12 c84 29 73 38 120 -97 24 -68 45 -125 46 -127 13 -15
10 21 -10 132 -12 70 -21 129 -18 132 6 6 18 -1 82 -54z m-1857 8 c30 -14 47
-48 47 -95 0 -76 -51 -141 -136 -173 l-49 -19 -5 -87 -5 -87 -52 -18 -53 -19
0 192 c0 106 3 208 6 228 6 36 8 37 88 62 92 29 125 32 159 16z m-323 -118 c0
-48 0 -48 -42 -64 -24 -9 -62 -21 -85 -28 -40 -11 -43 -15 -43 -46 0 -18 4
-33 8 -33 5 0 35 9 67 20 32 11 62 20 67 20 4 0 8 -22 8 -49 l0 -48 -75 -22
-75 -23 0 -39 c0 -21 4 -39 8 -39 5 0 42 11 82 25 40 14 75 25 77 25 2 0 3
-22 3 -49 l0 -50 -137 -43 -138 -44 -3 105 c-2 58 0 160 3 226 l7 121 111 34
c62 18 119 37 127 41 27 15 30 10 30 -40z m1333 -142 c-49 -92 -169 -219 -295
-314 l-100 -76 -28 18 c-49 31 -183 140 -223 180 l-37 39 342 111 c189 61 351
111 361 112 16 1 13 -9 -20 -70z m-1752 21 c38 -21 53 -68 52 -175 0 -122 -24
-189 -81 -229 -38 -26 -143 -68 -200 -81 l-32 -7 2 223 3 222 80 28 c85 29
144 36 176 19z m2188 -200 l51 -175 -4 78 c-3 57 -1 75 7 70 34 -20 247 -198
247 -206 0 -5 -47 -98 -105 -207 -58 -108 -117 -228 -132 -266 -14 -38 -29
-73 -33 -77 -23 -25 -236 159 -351 301 -94 116 -177 273 -194 364 -7 35 -4 40
45 92 29 31 56 53 60 51 5 -3 21 -42 37 -88 l28 -82 5 152 c3 83 8 155 12 159
12 11 74 -42 91 -79 9 -19 23 -65 31 -103 20 -92 64 -255 71 -263 3 -3 3 58
-1 135 -4 77 -4 160 0 185 7 50 64 156 76 143 4 -5 31 -88 59 -184z m-2542 53
c-4 -38 -7 -139 -7 -225 l0 -156 -51 -17 c-43 -15 -53 -15 -64 -4 -15 15 -54
81 -87 147 -12 23 -26 42 -30 42 -4 0 -8 -55 -8 -123 l0 -123 -50 -16 -50 -16
0 223 c0 123 3 226 8 228 4 3 31 12 59 20 l53 16 57 -102 58 -102 3 122 3 122
42 14 c71 26 71 25 64 -50z m1346 -81 c31 -34 47 -87 37 -122 -15 -52 -87
-187 -144 -270 -60 -88 -224 -256 -315 -324 l-64 -47 -21 38 c-43 75 -256 492
-256 500 0 14 223 84 231 72 4 -7 8 -6 12 4 4 11 155 67 181 67 3 0 6 -35 6
-77 0 -42 2 -74 4 -72 3 3 16 42 29 89 l25 84 72 22 73 22 -6 -59 c-3 -34 -1
-57 4 -53 5 3 9 9 9 14 0 27 43 119 58 123 34 9 49 7 65 -11z m-1793 -216 l0
-224 -47 -16 c-26 -9 -50 -16 -55 -16 -9 0 -11 285 -1 382 l6 68 46 14 c25 8
47 14 49 15 1 1 2 -100 2 -223z m2380 -206 c6 0 10 4 10 10 0 17 41 120 48
120 4 0 33 -41 66 -90 51 -78 58 -95 53 -124 -7 -43 -63 -157 -118 -239 -50
-74 -200 -224 -251 -251 l-36 -20 -43 28 c-62 41 -190 172 -238 243 -54 81
-121 220 -121 252 0 23 107 200 121 201 4 0 17 -27 29 -60 12 -33 27 -63 31
-66 5 -3 9 56 9 131 0 120 2 136 16 131 34 -13 146 -100 154 -120 5 -12 16
-81 26 -154 9 -74 20 -128 25 -120 4 7 12 64 18 126 7 62 16 123 20 135 9 22
68 76 136 124 l30 21 3 -139 c1 -81 7 -139 12 -139z m1807 169 c103 -40 188
-68 192 -63 4 5 18 35 31 67 23 59 32 65 75 45 17 -8 24 -17 20 -27 -4 -9 -23
-59 -42 -111 -20 -52 -39 -98 -43 -103 -5 -5 -444 155 -458 167 -3 4 32 96 37
96 2 0 87 -32 188 -71z m-3656 -321 c17 -24 33 -49 36 -56 5 -12 -5 -26 -205
-260 -122 -143 -122 -143 -158 -77 l-18 35 32 33 c18 18 32 39 32 46 0 12 -67
111 -75 111 -1 0 -22 -7 -45 -15 -23 -8 -48 -15 -54 -15 -12 0 -51 57 -51 74
0 8 436 164 462 165 7 1 27 -18 44 -41z m3506 -85 c126 -47 229 -87 231 -89 7
-5 -54 -83 -64 -84 -6 0 -28 7 -47 15 -20 8 -41 15 -46 15 -6 0 -28 -24 -50
-52 l-40 -52 36 -44 35 -43 -26 -39 c-15 -22 -30 -40 -34 -39 -14 0 -314 390
-309 402 10 25 67 97 77 97 5 0 112 -39 237 -87z m-2398 -2 c6 -22 19 -56 28
-78 l18 -38 5 59 5 60 133 -167 c72 -92 132 -175 132 -185 -1 -9 -26 -34 -57
-55 l-56 -38 -26 24 c-14 13 -93 83 -176 157 -82 73 -154 144 -160 158 -9 22
-6 28 25 51 19 14 50 41 70 58 19 18 38 33 41 33 3 0 11 -18 18 -39z m1129
-22 c88 -73 91 -62 -59 -198 -57 -52 -135 -122 -172 -157 -37 -35 -70 -64 -73
-64 -15 0 -114 77 -117 90 -3 13 122 170 231 290 l41 45 1 -48 c0 -27 4 -46 8
-43 5 3 19 37 33 76 13 38 26 70 29 70 3 0 38 -28 78 -61z m-1872 -294 c92
-84 106 -113 79 -168 -28 -60 -70 -92 -120 -92 -37 0 -42 -2 -34 -17 18 -34 8
-66 -48 -140 l-57 -76 -37 31 c-43 36 -42 38 23 120 44 56 48 85 14 116 l-24
22 -63 -75 c-35 -41 -67 -75 -70 -75 -3 -1 -22 14 -43 32 l-37 32 156 183 c86
100 161 182 167 182 6 0 48 -34 94 -75z m2752 -146 c106 -140 141 -193 133
-203 -5 -6 -29 -26 -53 -43 l-43 -31 -120 77 c-66 42 -138 87 -160 101 l-40
24 29 -39 c16 -22 65 -86 107 -142 l78 -101 -34 -26 c-18 -14 -37 -26 -42 -26
-4 0 -73 85 -152 190 -110 145 -141 193 -133 203 6 7 31 27 55 44 l43 31 129
-79 c141 -88 165 -102 165 -96 0 3 -43 60 -95 128 l-95 124 32 28 c18 15 37
27 43 26 5 0 74 -86 153 -190z m-1539 25 l39 -25 52 26 c46 23 56 25 76 14 14
-7 24 -22 24 -34 0 -24 -113 -178 -134 -183 -17 -4 -103 73 -121 109 -26 49
-15 119 17 119 5 0 26 -12 47 -26z m-778 -155 c74 -33 138 -64 142 -68 5 -5 1
-25 -7 -45 l-15 -37 -52 26 c-28 15 -52 25 -54 23 -1 -2 -39 -84 -85 -183 -45
-99 -83 -181 -84 -183 -8 -8 -97 41 -92 51 2 7 41 90 86 186 44 95 79 175 78
177 -2 1 -25 12 -51 23 -26 11 -47 23 -47 26 0 13 31 65 39 65 4 0 68 -27 142
-61z m1726 -245 c79 -109 143 -201 143 -204 0 -3 -21 -14 -47 -23 -53 -20 -46
-23 -98 48 l-20 27 -60 -24 -60 -25 2 -55 3 -56 -40 -16 c-22 -9 -44 -16 -49
-16 -4 0 -15 93 -25 208 -9 114 -20 227 -23 252 l-5 45 59 22 c32 12 63 20 68
19 6 -1 74 -92 152 -202z m-1208 87 l86 -17 -2 -33 c0 -18 -3 -35 -6 -37 -3
-3 -39 1 -81 9 -42 8 -78 11 -80 8 -2 -3 -7 -29 -11 -58 -8 -58 -12 -55 85
-71 38 -6 45 -11 48 -32 5 -48 -8 -54 -82 -40 -37 7 -69 10 -72 8 -8 -8 -28
-127 -23 -133 3 -2 40 -10 83 -17 l78 -12 -6 -34 c-3 -19 -7 -36 -10 -39 -5
-6 -248 38 -258 47 -7 5 63 423 77 468 5 13 20 12 174 -17z m570 -26 c29 -14
49 -50 53 -95 3 -23 0 -25 -48 -28 -50 -3 -51 -2 -57 27 -10 50 -76 50 -92 0
-10 -32 14 -58 99 -102 101 -53 121 -79 121 -158 0 -52 -3 -62 -30 -89 -35
-35 -122 -57 -181 -46 -47 9 -91 53 -99 100 -4 20 -6 39 -4 41 2 2 25 6 51 10
46 7 47 6 54 -21 10 -41 23 -54 53 -54 34 0 51 17 51 49 0 38 -8 46 -95 94
-103 56 -128 91 -123 165 5 60 27 89 81 109 45 16 133 16 166 -2z"/>
<path d="M4083 3988 l-33 -11 0 -123 c0 -68 2 -124 5 -124 3 0 20 6 39 14 45
19 57 54 54 161 -3 99 -6 102 -65 83z"/>
<path d="M1367 3945 c-11 -11 -16 -59 -22 -206 -7 -179 -6 -193 11 -206 55
-40 71 22 73 298 1 104 -6 129 -35 129 -7 0 -19 -7 -27 -15z"/>
<path d="M5812 3808 c-5 -7 -14 -98 -20 -202 -12 -205 -10 -220 36 -214 35 4
39 24 47 227 6 131 5 174 -5 186 -15 18 -44 20 -58 3z"/>
<path d="M2178 3378 l-28 -10 0 -124 c0 -68 2 -124 5 -124 23 0 69 37 81 65
16 40 19 157 4 186 -12 21 -22 22 -62 7z"/>
</g>
</svg>
